<svg width="48" height="48" fill="none" xmlns="http://www.w3.org/2000/svg"><path fill-rule="evenodd" clip-rule="evenodd" d="M17.328 4H39a6 6 0 016 6v23c0 6.627-5.373 12-12 12H7.503l.113-.124A5.82 5.82 0 013 39.182V26a5 5 0 015-5h3.328V10a6 6 0 016-6zm1.945 13.91A1.91 1.91 0 0121.182 16h13.182a1.91 1.91 0 011.909 1.91v.18a1.91 1.91 0 01-1.91 1.91H21.183a1.91 1.91 0 01-1.91-1.91v-.18zm-.273 9A1.91 1.91 0 0120.91 25h6.18A1.91 1.91 0 0129 26.91v.18A1.91 1.91 0 0127.09 29h-6.18A1.91 1.91 0 0119 27.09v-.18zM8 25h3v14a2 2 0 01-2 2h-.182A1.818 1.818 0 017 39.182V26a1 1 0 011-1z" fill="#0066ED"/></svg>