<svg width="48" height="48" fill="none" xmlns="http://www.w3.org/2000/svg"><path fill-rule="evenodd" clip-rule="evenodd" d="M39 4H17.328a6 6 0 00-6 6v11H8a5 5 0 00-5 5v13.182a5.82 5.82 0 004.616 5.694L7.503 45H33c6.627 0 12-5.373 12-12V10a6 6 0 00-6-6zM17.328 8H39a2 2 0 012 2v23l-.004.25A8 8 0 0133 41H15.249l.016-.085a5.81 5.81 0 00.063-.855V10a2 2 0 012-2zm3.854 8a1.91 1.91 0 00-1.91 1.91v.18a1.91 1.91 0 001.91 1.91h13.182a1.91 1.91 0 001.909-1.91v-.18a1.91 1.91 0 00-1.91-1.91H21.183zM19 26.91A1.91 1.91 0 0120.91 25h6.18A1.91 1.91 0 0129 26.91v.18A1.91 1.91 0 0127.09 29h-6.18A1.91 1.91 0 0119 27.09v-.18zM8 25h3v14a2 2 0 01-2 2h-.182A1.818 1.818 0 017 39.182V26a1 1 0 011-1z" fill="#62666B"/></svg>