<svg width="48" height="48" fill="none" xmlns="http://www.w3.org/2000/svg"><mask id="a" maskUnits="userSpaceOnUse" x="2" y="0" width="44" height="48"><path fill="#fff" d="M2.5.5h43v47h-43z"/></mask><g mask="url(#a)"><path fill-rule="evenodd" clip-rule="evenodd" d="M36.518 13.424a2 2 0 003.804-1.236 11.978 11.978 0 00-7.16-7.514l1.52-1.15a1.363 1.363 0 00-1.103-2.421c-2.26.473-3.976.955-5.147 1.445-1.576.66-2.837 1.382-3.782 2.167a.487.487 0 00-.113.135 2 2 0 001.9 3.437 8 8 0 0110.081 5.137zM14.5 7.103c4.368 0 8.19 2.333 10.29 5.822C17.648 15.312 12.5 22.055 12.5 30c0 .316.008.63.024.94C6.837 30 2.5 25.058 2.5 19.104c0-6.628 5.373-12 12-12zM30.5 45c8.284 0 15-6.716 15-15 0-8.284-6.716-15-15-15-8.284 0-15 6.716-15 15 0 8.284 6.716 15 15 15zm3.148-13.232a1.9 1.9 0 112.704 2.67c-1.662 1.684-3.644 2.565-5.852 2.565s-4.19-.88-5.852-2.566a1.9 1.9 0 112.704-2.669c.97.982 1.988 1.435 3.148 1.435 1.16 0 2.179-.453 3.148-1.435zm-27.88-.84a2 2 0 012 2 8 8 0 008 8 2 2 0 01.697 3.875.494.494 0 01-.125.072c-1.14.454-2.563.751-4.266.892-1.265.104-3.046.032-5.342-.217a1.363 1.363 0 01-.3-2.643l1.816-.629a11.977 11.977 0 01-4.48-9.35 2 2 0 012-2z" fill="#0066ED"/></g></svg>