<svg width="48" height="48" fill="none" xmlns="http://www.w3.org/2000/svg"><mask id="a" maskUnits="userSpaceOnUse" x="2" y="0" width="44" height="48"><path fill="#fff" d="M2.502.503h43.215v47.235H2.502z"/></mask><g mask="url(#a)"><path fill-rule="evenodd" clip-rule="evenodd" d="M36.69 13.49a2.01 2.01 0 103.824-1.241 12.037 12.037 0 00-7.197-7.552l1.527-1.156a1.37 1.37 0 00-1.107-2.433c-2.271.476-3.996.96-5.173 1.453-1.584.663-2.85 1.389-3.8 2.177a.488.488 0 00-.115.137 2.01 2.01 0 001.91 3.454 8.04 8.04 0 0110.132 5.162zm-11.786-.5a12.054 12.054 0 00-10.341-5.852c-6.661 0-12.06 5.4-12.06 12.06 0 5.984 4.358 10.95 10.074 11.898a18.416 18.416 0 01.24-4.048 8.04 8.04 0 118.41-12.348 18.01 18.01 0 013.677-1.71zm20.814 17.16c0-8.326-6.75-15.075-15.076-15.075-8.325 0-15.074 6.75-15.074 15.075 0 8.326 6.749 15.075 15.074 15.075 8.326 0 15.076-6.75 15.076-15.075zm-26.13 0c0-6.105 4.949-11.055 11.054-11.055 6.106 0 11.055 4.95 11.055 11.055 0 6.105-4.949 11.055-11.055 11.055-6.105 0-11.055-4.95-11.055-11.055zm16.918 1.76a1.91 1.91 0 00-2.7.017c-.974.987-1.998 1.442-3.163 1.442-1.166 0-2.19-.455-3.164-1.442a1.91 1.91 0 10-2.718 2.682c1.671 1.694 3.662 2.579 5.881 2.579 2.22 0 4.211-.885 5.882-2.579a1.91 1.91 0 00-.018-2.7zm-30.718-.828c1.11 0 2.01.9 2.01 2.01 0 4.44 3.6 8.04 8.04 8.04a2.01 2.01 0 01.7 3.895.499.499 0 01-.126.072c-1.147.456-2.576.755-4.287.896-1.272.105-3.062.033-5.369-.217a1.37 1.37 0 01-.301-2.656l1.824-.632a12.037 12.037 0 01-4.501-9.398c0-1.11.9-2.01 2.01-2.01z" fill="#62666B"/></g></svg>