<svg width="48" height="48" fill="none" xmlns="http://www.w3.org/2000/svg"><path fill-rule="evenodd" clip-rule="evenodd" d="M10.043 8c-1.077 0-1.96.833-2.037 1.89L8 10.035a2 2 0 001.85 1.96L10 12h18c.135 0 .266.013.394.039h7.235a8 8 0 017.996 7.75l.004.25v16.11a8 8 0 01-7.75 7.997l-.25.004H12a8 8 0 01-7.996-7.751L4 36.149V10a6 6 0 015.775-5.996L10 4h17a2 2 0 01.15 3.995L27 8H10.042zM8 36.15V15.659A5.99 5.99 0 0010 16h13.85c.127.025.259.039.393.039H35.63l.2.005a4 4 0 013.8 3.995v16.11l-.005.2a4 4 0 01-3.995 3.8H12l-.2-.004A4 4 0 018 36.15zm23.13-13.9a5.9 5.9 0 100 11.8 5.9 5.9 0 000-11.8zm0 3.8a2.1 2.1 0 110 4.2 2.1 2.1 0 010-4.2z" fill="#62666B"/></svg>