<svg width="48" height="48" fill="none" xmlns="http://www.w3.org/2000/svg"><path fill-rule="evenodd" clip-rule="evenodd" d="M21.426 2.946l.133.073.343.21c.06.038.1.066.12.083 7.131 5.73 5.302 13.385 4.393 17.19-.165.69-.3 1.253-.345 1.655-.176 1.549.91 1.995 1.81.815 1.28-1.677 2.037-4.175 2.272-7.495a1.754 1.754 0 012.362-1.522c4.856 2.91 7.528 7.33 8.017 13.264.056.402.084.849.084 1.344l-.004.367.002.447h-.017c-.424 8.83-7.692 15.857-16.596 15.857-9.176 0-16.615-7.464-16.615-16.671 0-3.356.988-6.48 2.688-9.096l.264-.397.052-.07c.234-.337.482-.665.741-.983l.86-1.149c1.934-2.602 3.366-4.641 4.298-6.12 1.098-1.741 1.938-3.923 2.52-6.546a1.847 1.847 0 012.482-1.316l.136.06zm.15 5.1l-.053.16c-.572 1.677-1.273 3.181-2.111 4.51l-.31.485c-.972 1.5-2.337 3.431-4.104 5.81l-.917 1.226-.088.113a12.83 12.83 0 00-.39.504l-.212.293-.054.08a12.93 12.93 0 00-2.255 6.956l-.005.38c0 7.17 5.789 12.979 12.923 12.979 6.8 0 12.414-5.291 12.89-12.047l.018-.294.01-.241.005-.397c0-.262-.011-.494-.032-.696l-.04-.345c-.279-3.385-1.38-6.054-3.366-8.137l-.125-.127-.067.317c-.472 2.1-1.22 3.89-2.275 5.364l-.202.272c-3.227 4.231-9.004 1.717-8.415-3.47.046-.403.12-.794.247-1.351l.39-1.658.043-.19c.7-3.145.774-5.571-.03-7.841a9.151 9.151 0 00-1.354-2.5l-.122-.154zM24 28.619a5.538 5.538 0 110 11.077 5.538 5.538 0 010-11.076zm0 3.508a2.03 2.03 0 100 4.062 2.03 2.03 0 000-4.062z" fill="#62666B"/></svg>