<svg width="48" height="48" fill="none" xmlns="http://www.w3.org/2000/svg"><path fill-rule="evenodd" clip-rule="evenodd" d="M21.407.988c-1.208-.725-2.783.029-3.113 1.398-.502 2.086-1.355 4.89-2.648 6.942-1.406 2.23-4.215 6.033-5.637 7.936-.266.328-.52.667-.763 1.014l-.106.14.007.003A18.02 18.02 0 006 28.627c0 9.975 8.059 18.06 18 18.06 9.646 0 17.52-7.613 17.979-17.177h.019s0-.106-.007-.302c.006-.193.009-.386.009-.58 0-1.14-.14-2.043-.404-2.756-.72-3.808-2.736-9.692-8.373-13.07-1.198-.444-2.497.441-2.619 1.714-.233 2.443-.836 6.004-2.4 8.055-.975 1.278-2.152.795-1.961-.883.05-.436.195-1.046.373-1.792.985-4.123 2.967-12.416-4.758-18.624a6.71 6.71 0 00-.451-.284zm8.928 34.347a1.9 1.9 0 00-2.687.018c-1.262 1.278-2.614 1.88-4.148 1.88-1.534 0-2.886-.602-4.148-1.88a1.9 1.9 0 10-2.704 2.67c1.955 1.98 4.27 3.01 6.852 3.01 2.583 0 4.897-1.03 6.852-3.01a1.9 1.9 0 00-.017-2.688z" fill="#0066ED"/></svg>