<svg width="48" height="48" fill="none" xmlns="http://www.w3.org/2000/svg"><path fill-rule="evenodd" clip-rule="evenodd" d="M28.037 3.072l11.968 6.881a7.994 7.994 0 014.016 6.928v13.763c0 2.858-1.531 5.499-4.017 6.928l-11.967 6.881a8.061 8.061 0 01-8.032 0L8.037 37.572a7.994 7.994 0 01-4.016-6.928V16.88c0-2.858 1.53-5.499 4.016-6.928l11.967-6.881a8.061 8.061 0 018.033 0zm-1.923 3.464a4.039 4.039 0 00-3.81-.113l-.21.113-11.98 6.881a3.998 3.998 0 00-2.004 3.24l-.006.224v13.763c0 1.353.688 2.61 1.818 3.346l.192.118 11.98 6.88a4.039 4.039 0 003.81.113l.21-.112 11.98-6.881a3.997 3.997 0 002.004-3.24l.006-.224V16.88c0-1.354-.688-2.61-1.818-3.346l-.192-.118-11.98-6.881zm-3.388 13.047l5.36.8c-1.284 1.738-2.606 3.211-3.962 4.42a22.663 22.663 0 01-8.079 4.65c-1.068.352-1.647 1.487-1.293 2.535.355 1.049 1.508 1.614 2.577 1.262a26.775 26.775 0 009.528-5.485c2.75-2.45 5.302-5.753 7.669-9.903a1.98 1.98 0 00-.78-2.724 2.068 2.068 0 00-1.947-.02 1.09 1.09 0 00-.082.023l-9.106 2.89c-.81.256-.723 1.427.115 1.552z" fill="#62666B"/></svg>