<svg width="48" height="48" fill="none" xmlns="http://www.w3.org/2000/svg"><path fill-rule="evenodd" clip-rule="evenodd" d="M27.988 3.293a8 8 0 00-7.976 0l-12 6.9A8 8 0 004 17.128v13.744a8 8 0 004.012 6.935l12 6.9a8 8 0 007.976 0l12-6.9A8 8 0 0044 30.872V17.128a8 8 0 00-4.012-6.935l-12-6.9zM22.34 19.808l5.245.805c-1.26 1.742-2.559 3.217-3.891 4.425a22.046 22.046 0 01-7.92 4.63 2 2 0 001.267 3.794 26.044 26.044 0 009.34-5.46c2.694-2.443 5.19-5.737 7.506-9.877a2 2 0 00-2.665-2.752c-.044.008-.088.019-.132.033l-8.874 2.85c-.804.258-.711 1.424.124 1.552z" fill="#0066ED"/></svg>